<svg width="201" height="56" viewBox="0 0 201 56" fill="none" xmlns="http://www.w3.org/2000/svg">
<path fill-rule="evenodd" clip-rule="evenodd" d="M40.9951 12.8591C40.8954 12.7086 40.9135 12.5081 41.0413 12.3805L43.2181 10.209C43.3814 10.0461 43.6526 10.0679 43.7851 10.2566C50.3537 19.618 49.4484 32.6105 41.0684 40.9705C32.6884 49.3305 19.6649 50.2336 10.2811 43.6807C10.0919 43.5485 10.0701 43.2779 10.2334 43.115L12.4101 40.9434C12.538 40.8159 12.739 40.7979 12.8898 40.8973C20.1402 45.6764 29.7887 45.3235 36.6843 39.8385C36.8573 39.7009 36.8696 39.4437 36.7131 39.2876L22.7192 25.3271C22.6487 25.2567 22.5531 25.2172 22.4534 25.2172L4.20909 25.2169C3.99265 25.2169 3.8206 25.3988 3.83776 25.6141C4.19755 30.1265 6.0687 34.5414 9.45106 38.0407C9.59516 38.1898 9.59558 38.4272 9.44879 38.5736L7.31197 40.7053C7.16518 40.8518 6.92588 40.8509 6.78136 40.7022C-2.34796 31.3101 -2.25953 16.3129 7.04617 7.02937C16.3519 -2.25414 31.385 -2.34236 40.7995 6.76519C40.9486 6.90936 40.9494 7.14809 40.8026 7.29454L38.6658 9.42625C38.519 9.5727 38.2811 9.57229 38.1317 9.42853C34.6859 6.11381 30.3543 4.25399 25.9143 3.84942C25.6971 3.82963 25.512 4.00188 25.512 4.21951L25.5127 22.6345C25.5127 22.7339 25.5523 22.8293 25.6228 22.8996L39.3815 36.6256C39.538 36.7816 39.7958 36.7694 39.9337 36.5968C45.4319 29.7177 45.7855 20.0921 40.9951 12.8591ZM21.7389 4.31664C21.7389 4.09265 21.5433 3.91833 21.3208 3.94838C17.7902 4.42524 14.3611 5.82984 11.4297 8.16185C11.2567 8.29946 11.245 8.55617 11.4015 8.71224L21.0969 18.3845C21.3337 18.6208 21.7386 18.4535 21.7386 18.1194L21.7389 4.31664ZM8.73306 11.3743C8.57662 11.2182 8.31929 11.2299 8.18136 11.4024C5.89655 14.2608 4.50045 17.5928 3.99222 21.0306C3.9592 21.2539 4.13446 21.4519 4.36073 21.4519L17.9275 21.4521C18.2624 21.4521 18.4301 21.0482 18.1933 20.8119L8.73306 11.3743Z" fill="#D80000"></path>
<path d="M67.8549 36.09L61.2692 19.92H65.6898L70.5915 32.97H69.96L70.1103 32.55L74.4106 19.92H75.7638L69.6292 36.09H67.8549ZM59.9761 20.82V19.92H68.6067V20.82L65.4191 21.15H62.8931L59.9761 20.82ZM71.5838 20.82V19.92H77.4478V20.82L75.012 21.15H74.4106L71.5838 20.82Z" fill="black"></path>
<path d="M82.2137 36V35.01L86.965 34.59H88.1378L92.9794 35.01V36H82.2137ZM85.3712 36C85.4113 34.3 85.4314 32.59 85.4314 30.87C85.4514 29.13 85.4615 27.38 85.4615 25.62V24.18C85.4615 22.44 85.4514 20.71 85.4314 18.99C85.4314 17.25 85.4113 15.51 85.3712 13.77H89.8219C89.7818 15.47 89.7517 17.2 89.7316 18.96C89.7316 20.7 89.7316 22.44 89.7316 24.18V25.59C89.7316 27.33 89.7316 29.07 89.7316 30.81C89.7517 32.53 89.7818 34.26 89.8219 36H85.3712ZM77.8232 20.01L77.9736 13.77H97.1894L97.3698 20.01H95.776L94.1822 13.77L96.1971 14.91H78.966L81.0108 13.77L79.417 20.01H77.8232Z" fill="black"></path>
<path d="M103.046 36.48C101.783 36.48 100.741 36.13 99.9189 35.43C99.117 34.71 98.716 33.72 98.716 32.46C98.716 31.6 98.9065 30.85 99.2874 30.21C99.6683 29.55 100.3 28.97 101.182 28.47C102.084 27.95 103.287 27.48 104.791 27.06C105.592 26.84 106.485 26.6 107.467 26.34C108.469 26.08 109.371 25.86 110.173 25.68V26.43C109.371 26.63 108.57 26.85 107.768 27.09C106.966 27.31 106.294 27.51 105.753 27.69C104.67 28.13 103.858 28.7 103.317 29.4C102.776 30.08 102.505 30.92 102.505 31.92C102.505 32.84 102.726 33.53 103.167 33.99C103.608 34.43 104.199 34.65 104.941 34.65C105.262 34.65 105.602 34.58 105.963 34.44C106.344 34.28 106.775 34.01 107.256 33.63C107.758 33.23 108.339 32.67 109.001 31.95L109.482 33.54H108.429C107.848 34.16 107.296 34.69 106.775 35.13C106.274 35.57 105.723 35.9 105.121 36.12C104.54 36.36 103.848 36.48 103.046 36.48ZM111.436 36.45C110.414 36.45 109.632 36.16 109.091 35.58C108.549 34.98 108.219 34.18 108.098 33.18V24.57C108.098 23.49 107.998 22.66 107.798 22.08C107.597 21.48 107.266 21.06 106.805 20.82C106.344 20.58 105.723 20.46 104.941 20.46C104.42 20.46 103.888 20.52 103.347 20.64C102.806 20.76 102.174 20.97 101.453 21.27L103.317 20.52L103.016 22.83C102.956 23.69 102.736 24.3 102.355 24.66C101.994 25.02 101.553 25.2 101.032 25.2C100.049 25.2 99.4378 24.74 99.1972 23.82C99.3977 22.46 100.099 21.39 101.302 20.61C102.525 19.83 104.189 19.44 106.294 19.44C108.299 19.44 109.752 19.9 110.654 20.82C111.577 21.74 112.038 23.24 112.038 25.32V33.15C112.038 33.85 112.128 34.33 112.308 34.59C112.489 34.85 112.739 34.98 113.06 34.98C113.281 34.98 113.491 34.91 113.692 34.77C113.892 34.63 114.133 34.37 114.413 33.99L114.925 34.41C114.564 35.13 114.103 35.65 113.541 35.97C112.98 36.29 112.278 36.45 111.436 36.45Z" fill="black"></path>
<path d="M117.389 36V35.1L120.607 34.8H122.472L125.719 35.1V36H117.389ZM119.524 36C119.545 35.5 119.555 34.83 119.555 33.99C119.575 33.15 119.585 32.28 119.585 31.38C119.605 30.46 119.615 29.65 119.615 28.95V26.76C119.615 25.76 119.605 24.9 119.585 24.18C119.585 23.46 119.565 22.74 119.524 22.02L117.149 21.81V21.09L123.374 19.5L123.765 19.74L123.644 24.36V28.95C123.644 29.65 123.644 30.46 123.644 31.38C123.664 32.28 123.684 33.15 123.704 33.99C123.724 34.83 123.745 35.5 123.765 36H119.524ZM121.479 16.35C120.858 16.35 120.316 16.15 119.855 15.75C119.414 15.33 119.194 14.79 119.194 14.13C119.194 13.51 119.414 13 119.855 12.6C120.316 12.18 120.858 11.97 121.479 11.97C122.101 11.97 122.632 12.18 123.073 12.6C123.534 13 123.765 13.51 123.765 14.13C123.765 14.79 123.534 15.33 123.073 15.75C122.632 16.15 122.101 16.35 121.479 16.35Z" fill="black"></path>
<path d="M134.435 36.09L128.691 19.92H132.871L136.931 32.85L136.449 32.88L136.6 32.46L140.78 19.92H142.825L147.275 32.88H146.764L146.884 32.52L150.673 19.92H152.027L146.493 36.09H144.749L140.148 22.62H141.05L140.81 23.22L136.179 36.09H134.435ZM127.428 20.82V19.92H135.758V20.82L131.879 21.15H130.525L127.428 20.82ZM138.194 20.82V19.92H145.651V20.82L142.464 21.15H141.381L138.194 20.82ZM147.666 20.82V19.92H153.831V20.82L151.305 21.15H150.794L147.666 20.82Z" fill="black"></path>
<path d="M160.103 36.48C158.84 36.48 157.797 36.13 156.975 35.43C156.173 34.71 155.772 33.72 155.772 32.46C155.772 31.6 155.963 30.85 156.344 30.21C156.725 29.55 157.356 28.97 158.238 28.47C159.14 27.95 160.343 27.48 161.847 27.06C162.649 26.84 163.541 26.6 164.523 26.34C165.526 26.08 166.428 25.86 167.23 25.68V26.43C166.428 26.63 165.626 26.85 164.824 27.09C164.022 27.31 163.35 27.51 162.809 27.69C161.727 28.13 160.915 28.7 160.373 29.4C159.832 30.08 159.561 30.92 159.561 31.92C159.561 32.84 159.782 33.53 160.223 33.99C160.664 34.43 161.255 34.65 161.997 34.65C162.318 34.65 162.659 34.58 163.02 34.44C163.401 34.28 163.832 34.01 164.313 33.63C164.814 33.23 165.395 32.67 166.057 31.95L166.538 33.54H165.486C164.904 34.16 164.353 34.69 163.832 35.13C163.33 35.57 162.779 35.9 162.178 36.12C161.596 36.36 160.905 36.48 160.103 36.48ZM168.493 36.45C167.47 36.45 166.688 36.16 166.147 35.58C165.606 34.98 165.275 34.18 165.155 33.18V24.57C165.155 23.49 165.055 22.66 164.854 22.08C164.654 21.48 164.323 21.06 163.862 20.82C163.401 20.58 162.779 20.46 161.997 20.46C161.476 20.46 160.945 20.52 160.403 20.64C159.862 20.76 159.231 20.97 158.509 21.27L160.373 20.52L160.073 22.83C160.013 23.69 159.792 24.3 159.411 24.66C159.05 25.02 158.609 25.2 158.088 25.2C157.106 25.2 156.494 24.74 156.254 23.82C156.454 22.46 157.156 21.39 158.359 20.61C159.581 19.83 161.245 19.44 163.35 19.44C165.355 19.44 166.809 19.9 167.711 20.82C168.633 21.74 169.094 23.24 169.094 25.32V33.15C169.094 33.85 169.184 34.33 169.365 34.59C169.545 34.85 169.796 34.98 170.117 34.98C170.337 34.98 170.548 34.91 170.748 34.77C170.949 34.63 171.189 34.37 171.47 33.99L171.981 34.41C171.62 35.13 171.159 35.65 170.598 35.97C170.036 36.29 169.335 36.45 168.493 36.45Z" fill="black"></path>
<path d="M174.356 36V35.1L177.543 34.8H179.438L182.625 35.1V36H174.356ZM176.461 36C176.501 35.5 176.521 34.83 176.521 33.99C176.541 33.15 176.551 32.28 176.551 31.38C176.571 30.46 176.581 29.65 176.581 28.95V26.7C176.581 25.7 176.571 24.87 176.551 24.21C176.531 23.53 176.501 22.82 176.461 22.08L174.115 21.87V21.15L180.009 19.5L180.4 19.74L180.641 23.16V28.95C180.641 29.65 180.641 30.46 180.641 31.38C180.661 32.28 180.671 33.15 180.671 33.99C180.691 34.83 180.711 35.5 180.731 36H176.461ZM184.73 36V35.1L187.858 34.8H189.752L193 35.1V36H184.73ZM186.805 36C186.825 35.5 186.835 34.84 186.835 34.02C186.855 33.18 186.865 32.31 186.865 31.41C186.885 30.49 186.895 29.67 186.895 28.95V24.9C186.895 23.64 186.695 22.76 186.294 22.26C185.913 21.74 185.342 21.48 184.58 21.48C183.978 21.48 183.237 21.72 182.355 22.2C181.473 22.66 180.57 23.43 179.648 24.51L179.528 23.22H179.979C181.102 21.8 182.164 20.82 183.167 20.28C184.189 19.72 185.242 19.44 186.324 19.44C187.727 19.44 188.84 19.9 189.662 20.82C190.504 21.74 190.925 23.19 190.925 25.17V28.95C190.925 29.67 190.925 30.49 190.925 31.41C190.945 32.31 190.965 33.18 190.985 34.02C191.005 34.84 191.025 35.5 191.045 36H186.805Z" fill="black"></path>
</svg>